{"accessors" : [{"bufferView" : 0, "byteOffset" : 0, "componentType" : 5123, "count" : 3258, "type" : "SCALAR", "max" : [3257], "min" : [0]}, {"bufferView" : 1, "byteOffset" : 0, "componentType" : 5126, "count" : 3258, "type" : "VEC3", "max" : [7.045658111572266, 1.6464499235153198, 0.3669481873512268], "min" : [-7.046896934509277, -1.703253149986267, -2.257472515106201]}, {"bufferView" : 1, "byteOffset" : 12, "componentType" : 5126, "count" : 3258, "type" : "VEC3", "max" : [0.9958480596542358, 0.9995725750923157, 0.9991732239723206], "min" : [-0.9958480596542358, -1.0000044107437134, -0.9999991059303284]}, {"bufferView" : 1, "byteOffset" : 24, "componentType" : 5126, "count" : 3258, "type" : "VEC2", "max" : [0.9285553693771362, -0.017572134733200073], "min" : [0.0584050714969635, -0.9149810075759888]}], "asset" : {"generator" : "Aspose.3D 20.11", "version" : "2.0"}, "buffers" : [{"uri" : "buffer.bin", "byteLength" : 110780}], "bufferViews" : [{"buffer" : 0, "byteOffset" : 0, "byteLength" : 6516, "target" : 34963}, {"buffer" : 0, "byteOffset" : 6520, "byteLength" : 104256, "byteStride" : 32, "target" : 34962}], "materials" : [{"pbrMetallicRoughness" : {"baseColorFactor" : [0, 0, 0, 1], "metallicFactor" : 0, "roughnessFactor" : 0}, "emissiveFactor" : [0, 0, 0], "alphaMode" : "OPAQUE", "doubleSided" : false}], "meshes" : [{"primitives" : [{"attributes" : {"POSITION" : 1, "NORMAL" : 2, "TEXCOORD_0" : 3}, "indices" : 0, "material" : 0, "mode" : 4}]}], "nodes" : [{"matrix" : [-33.403675079345355, -8.310040140151714E-18, -5.043814611410312E-06, 0, -9.324090297067728E-06, 72.55076463104382, 61.75066030153641, 0, 3.834894805141037E-06, 21.616640622694465, -25.397360907117495, 0, 1.4551915228366852E-09, 362.8599548339844, 2.1972781099561319E-16, 1], "mesh" : 0, "name" : "Bird_Mesh"}], "scene" : 0, "scenes" : [{"nodes" : [0]}]}